<?xml version="1.0" encoding="UTF-8" standalone="no"?>
<!-- Created with Inkscape (http://www.inkscape.org/) -->

<svg
   xmlns:dc="http://purl.org/dc/elements/1.1/"
   xmlns:cc="http://creativecommons.org/ns#"
   xmlns:rdf="http://www.w3.org/1999/02/22-rdf-syntax-ns#"
   xmlns:svg="http://www.w3.org/2000/svg"
   xmlns="http://www.w3.org/2000/svg"
   version="1.2"
   width="210mm"
   height="297mm"
   id="svg2">
  <defs
     id="defs4" />
  <metadata
     id="metadata7">
    <rdf:RDF>
      <cc:Work
         rdf:about="">
        <dc:format>image/svg+xml</dc:format>
        <dc:type
           rdf:resource="http://purl.org/dc/dcmitype/StillImage" />
        <dc:title></dc:title>
      </cc:Work>
    </rdf:RDF>
  </metadata>
  <g
     id="layer1">
    <path
       d="m 452,391.36218 a 5,5 0 1 1 -10,0 5,5 0 1 1 10,0 z"
       transform="matrix(2.557142,0,0,3.47619,-675.82818,-993.08712)"
       id="path3084"
       style="fill:#000000;stroke:none" />
    <flowRoot
       id="flowRoot3028"
       xml:space="preserve"
       style="font-size:40px;font-style:normal;font-weight:normal;line-height:125%;letter-spacing:0px;word-spacing:0px;fill:#000000;fill-opacity:1;stroke:none;font-family:Sans"><flowRegion
         id="flowRegion3030"><rect
           width="479.31738"
           height="4310.3208"
           x="230.31477"
           y="266.96857"
           id="rect3032" /></flowRegion><flowPara
         id="flowPara3034"></flowPara></flowRoot>    <path
       d="m 441.94173,392.22751 a 12.879445,12.626906 0 1 1 -25.75889,0 12.879445,12.626906 0 1 1 25.75889,0 z"
       transform="matrix(1.3495103,0,0,1.3108638,-108.73826,-163.29012)"
       id="path3036"
       style="fill:#de8787;fill-rule:evenodd;stroke:#000000;stroke-width:1px;stroke-linecap:butt;stroke-linejoin:miter;stroke-opacity:1" />
    <path
       d="m 434,385.36218 a 2,2 0 1 1 -4,0 2,2 0 1 1 4,0 z"
       transform="matrix(3.47619,0,0,3.47619,-1038.3807,-988.72545)"
       id="path3040"
       style="fill:#e6e6e6;stroke:#000000" />
    <path
       d="m 434,385.36218 a 2,2 0 1 1 -4,0 2,2 0 1 1 4,0 z"
       transform="matrix(3.47619,0,0,3.47619,-1017.5236,-988.72545)"
       id="path3040-8"
       style="fill:#e6e6e6;stroke:#000000" />
    <path
       d="m 470.28571,351.69551 6.95238,0"
       id="path3076"
       style="fill:none;stroke:#000000;stroke-width:3.47619009px;stroke-linecap:butt;stroke-linejoin:miter;stroke-opacity:1" />
    <path
       d="m 456.38095,348.21932 -3.47619,-3.47619"
       id="path3078"
       style="fill:none;stroke:#000000;stroke-width:3.47619009px;stroke-linecap:butt;stroke-linejoin:miter;stroke-opacity:1" />
    <path
       d="m 452.90476,337.79075 3.47619,-6.95238 27.80952,-3.47619 10.42857,0 -10.42857,3.47619 10.42857,0 -10.42857,3.47619 6.95238,0 -6.95238,3.47619 -10.42857,3.47619 -13.90476,0 -3.47619,3.47619 -6.95238,0 z"
       id="path3080"
       style="fill:#000000;stroke:none" />
    <path
       d="m 468,363.36218 6.95238,0"
       id="path3082"
       style="fill:none;stroke:#000000;stroke-width:1.45987439px;stroke-linecap:butt;stroke-linejoin:miter;stroke-opacity:1" />
    <path
       d="m 441,393.36218 a 1,1 0 1 1 -2,0 1,1 0 1 1 2,0 z"
       transform="matrix(3.47619,0,0,3.47619,-1079.5236,-993.51569)"
       id="path3086"
       style="fill:#000000;stroke:none" />
    <path
       d="m 456,394.36218 a 1,1 0 1 1 -2,0 1,1 0 1 1 2,0 z"
       transform="matrix(3.47619,0,0,3.47619,-1096.6665,-990.0395)"
       id="path3088"
       style="fill:#000000;stroke:none" />
    <path
       d="m 447,399.36218 a 2.5,1 0 1 1 -5,0 2.5,1 0 1 1 5,0 z"
       transform="matrix(2.9255783,-1.8774687,1.8774687,2.9255783,-1592.087,60.606106)"
       id="path3090"
       style="fill:#000000;stroke:none" />
    <path
       d="m 447,399.36218 a 2.5,1 0 1 1 -5,0 2.5,1 0 1 1 5,0 z"
       transform="matrix(2.7294123,2.1527205,-2.1527205,2.7294123,123.64411,-1652.2755)"
       id="path3090-0"
       style="fill:#000000;stroke:none" />
  </g>
</svg>
